<mxfile host="app.diagrams.net" modified="2024-08-18T10:38:13.390Z" agent="Mozilla/5.0 (Macintosh; Intel Mac OS X 10_15_7) AppleWebKit/537.36 (KHTML, like Gecko) Chrome/125.0.0.0 Safari/537.36" etag="cQbBF_gNkzqOCdU_2HiJ" version="22.1.17" type="github">
  <diagram name="Page-1" id="p3xlX53l1xXB9bB7H0Pl">
    <mxGraphModel dx="1242" dy="820" grid="1" gridSize="10" guides="1" tooltips="1" connect="1" arrows="1" fold="1" page="0" pageScale="1" pageWidth="850" pageHeight="1100" background="none" math="1" shadow="0">
      <root>
        <mxCell id="0" />
        <mxCell id="1" parent="0" />
        <mxCell id="Ddu9wDRHc_xumgMtI3vM-19" value="" style="endArrow=none;dashed=1;html=1;rounded=0;" parent="1" edge="1">
          <mxGeometry width="50" height="50" relative="1" as="geometry">
            <mxPoint x="150" y="480" as="sourcePoint" />
            <mxPoint x="147" y="380" as="targetPoint" />
          </mxGeometry>
        </mxCell>
        <mxCell id="Ddu9wDRHc_xumgMtI3vM-21" value="" style="endArrow=none;dashed=1;html=1;rounded=0;exitX=0.769;exitY=0;exitDx=0;exitDy=0;exitPerimeter=0;sourcePerimeterSpacing=0;" parent="1" source="Ddu9wDRHc_xumgMtI3vM-8" edge="1">
          <mxGeometry width="50" height="50" relative="1" as="geometry">
            <mxPoint x="400" y="230" as="sourcePoint" />
            <mxPoint x="778" y="220" as="targetPoint" />
          </mxGeometry>
        </mxCell>
        <mxCell id="Ddu9wDRHc_xumgMtI3vM-32" value="" style="endArrow=none;html=1;rounded=0;entryX=0;entryY=0.5;entryDx=0;entryDy=0;exitX=0.98;exitY=0.125;exitDx=0;exitDy=0;exitPerimeter=0;" parent="1" target="Ddu9wDRHc_xumgMtI3vM-12" edge="1" source="Ddu9wDRHc_xumgMtI3vM-3">
          <mxGeometry width="50" height="50" relative="1" as="geometry">
            <mxPoint x="202" y="162" as="sourcePoint" />
            <mxPoint x="570" y="280" as="targetPoint" />
          </mxGeometry>
        </mxCell>
        <mxCell id="Ddu9wDRHc_xumgMtI3vM-28" value="" style="endArrow=none;html=1;rounded=0;entryX=0.005;entryY=0.848;entryDx=0;entryDy=0;targetPerimeterSpacing=0;endSize=6;jumpStyle=line;jumpSize=6;sourcePerimeterSpacing=0;entryPerimeter=0;" parent="1" target="Ddu9wDRHc_xumgMtI3vM-4" edge="1">
          <mxGeometry width="50" height="50" relative="1" as="geometry">
            <mxPoint x="470" y="215" as="sourcePoint" />
            <mxPoint x="575" y="213" as="targetPoint" />
          </mxGeometry>
        </mxCell>
        <mxCell id="Ddu9wDRHc_xumgMtI3vM-1" value="&lt;font style=&quot;font-size: 14px;&quot;&gt;User&lt;/font&gt;" style="rounded=1;whiteSpace=wrap;html=1;fillColor=#d5e8d4;strokeColor=#82b366;" parent="1" vertex="1">
          <mxGeometry x="80" y="70" width="120" height="30" as="geometry" />
        </mxCell>
        <mxCell id="Ddu9wDRHc_xumgMtI3vM-2" value="&lt;font style=&quot;font-size: 13px;&quot;&gt;Gateway&lt;/font&gt;" style="rounded=1;whiteSpace=wrap;html=1;fillColor=#d5e8d4;strokeColor=#82b366;" parent="1" vertex="1">
          <mxGeometry x="710" y="70" width="120" height="30" as="geometry" />
        </mxCell>
        <mxCell id="Ddu9wDRHc_xumgMtI3vM-3" value="&lt;div style=&quot;text-align: justify; font-size: 13px;&quot;&gt;&lt;font style=&quot;font-size: 13px;&quot;&gt;&lt;span style=&quot;background-color: initial;&quot;&gt;Enter: U&lt;/span&gt;&lt;sub style=&quot;background-color: initial;&quot;&gt;ID&lt;/sub&gt;&lt;/font&gt;&lt;/div&gt;&lt;div style=&quot;text-align: justify; font-size: 13px;&quot;&gt;&lt;font style=&quot;font-size: 13px;&quot;&gt;&lt;span style=&quot;background-color: initial;&quot;&gt;Generate: R&lt;/span&gt;&lt;sub style=&quot;background-color: initial;&quot;&gt;q&lt;/sub&gt;&lt;/font&gt;&lt;/div&gt;" style="rounded=1;whiteSpace=wrap;html=1;fillColor=#ffe6cc;strokeColor=#d79b00;fontSize=15;" parent="1" vertex="1">
          <mxGeometry x="90" y="160" width="100" height="60" as="geometry" />
        </mxCell>
        <mxCell id="Ddu9wDRHc_xumgMtI3vM-4" value="&lt;div style=&quot;text-align: justify; font-size: 13px;&quot;&gt;&lt;span style=&quot;background-color: initial;&quot;&gt;&lt;font style=&quot;font-size: 13px;&quot;&gt;Generate: `C_U`&lt;/font&gt;&lt;/span&gt;&lt;/div&gt;&lt;font style=&quot;font-size: 13px;&quot;&gt;&lt;div style=&quot;text-align: justify;&quot;&gt;&lt;span style=&quot;background-color: initial;&quot;&gt;Select: `{G,H}_{EC}`&lt;/span&gt;&lt;/div&gt;&lt;/font&gt;" style="rounded=1;whiteSpace=wrap;html=1;fillColor=#ffe6cc;strokeColor=#d79b00;" parent="1" vertex="1">
          <mxGeometry x="720" y="150" width="130" height="76" as="geometry" />
        </mxCell>
        <mxCell id="Ddu9wDRHc_xumgMtI3vM-5" value="&lt;div style=&quot;text-align: justify; line-height: 140%;&quot;&gt;&lt;span style=&quot;background-color: initial;&quot;&gt;&lt;font style=&quot;font-size: 12px;&quot;&gt;Compute: `R_U=P_U(C_U)&amp;nbsp; (40)`&lt;/font&gt;&lt;/span&gt;&lt;/div&gt;&lt;font style=&quot;font-size: 12px;&quot;&gt;&lt;div style=&quot;text-align: justify; line-height: 140%;&quot;&gt;&lt;span style=&quot;background-color: initial;&quot;&gt;Enter: Gen(Bio) = `(B_1, B_2)`&lt;/span&gt;&lt;/div&gt;&lt;div style=&quot;text-align: justify; line-height: 140%;&quot;&gt;&lt;span style=&quot;background-color: initial;&quot;&gt;Compute: Z = `h(B_1)_{T96}&amp;nbsp; (41)`&lt;/span&gt;&lt;/div&gt;&lt;div style=&quot;text-align: justify; line-height: 140%;&quot;&gt;&lt;span style=&quot;background-color: initial;&quot;&gt;Compute: W = `h(R_U)_{T96}&amp;nbsp; (42)`&lt;/span&gt;&lt;/div&gt;&lt;div style=&quot;text-align: justify; line-height: 140%;&quot;&gt;&lt;span style=&quot;background-color: initial;&quot;&gt;Compute: `\tau_1= ZG&amp;nbsp; (43)`&lt;/span&gt;&lt;/div&gt;&lt;div style=&quot;text-align: justify; line-height: 140%;&quot;&gt;&lt;span style=&quot;background-color: initial;&quot;&gt;Compute: `\tau_2=WH&amp;nbsp; (44)`&lt;/span&gt;&lt;/div&gt;&lt;/font&gt;" style="rounded=1;whiteSpace=wrap;html=1;fillColor=#e1d5e7;strokeColor=#9673a6;" parent="1" vertex="1">
          <mxGeometry x="90" y="270" width="210" height="110" as="geometry" />
        </mxCell>
        <mxCell id="Ddu9wDRHc_xumgMtI3vM-8" value="&lt;div style=&quot;line-height: 150%; font-size: 13px;&quot;&gt;&lt;span style=&quot;background-color: initial;&quot;&gt;&lt;font style=&quot;font-size: 13px;&quot;&gt;&amp;nbsp;Generate: `k_{ug} =KDF(K, S, I)&amp;nbsp; (46)`&lt;/font&gt;&lt;/span&gt;&lt;/div&gt;&lt;div style=&quot;line-height: 150%; font-size: 13px;&quot;&gt;&lt;span style=&quot;background-color: initial;&quot;&gt;&lt;font style=&quot;font-size: 13px;&quot;&gt;&amp;nbsp;Assign: `K_{UG}^1=h(k_{ug})&amp;nbsp; (47), K_{UG}^2=k_{ug}&amp;nbsp; (48)`&lt;/font&gt;&lt;/span&gt;&lt;/div&gt;&lt;div style=&quot;line-height: 150%; font-size: 13px;&quot;&gt;&lt;span style=&quot;background-color: initial;&quot;&gt;&lt;font style=&quot;font-size: 13px;&quot;&gt;&amp;nbsp;Create: Array U, where&amp;nbsp; &amp;nbsp;U[0]=`K_{UG}^1`, U[1]=`K_{UG}^2`&lt;/font&gt;&lt;/span&gt;&lt;/div&gt;&lt;div style=&quot;line-height: 150%; font-size: 13px;&quot;&gt;&lt;span style=&quot;background-color: initial;&quot;&gt;&lt;font style=&quot;font-size: 13px;&quot;&gt;&amp;nbsp;Generate: Flag `f_u` = 0&lt;/font&gt;&lt;/span&gt;&lt;/div&gt;&lt;font style=&quot;font-size: 13px;&quot;&gt;&lt;div style=&quot;line-height: 150%;&quot;&gt;&lt;span style=&quot;background-color: initial;&quot;&gt;&amp;nbsp;Compute: `\beta=h(WH,K_{UG}^1)&amp;nbsp; (49)`&lt;/span&gt;&lt;/div&gt;&lt;/font&gt;" style="rounded=1;whiteSpace=wrap;html=1;fillColor=#e1d5e7;strokeColor=#9673a6;align=left;" parent="1" vertex="1">
          <mxGeometry x="540" y="270" width="310" height="120" as="geometry" />
        </mxCell>
        <mxCell id="Ddu9wDRHc_xumgMtI3vM-10" value="&lt;font style=&quot;font-size: 13px;&quot;&gt;&lt;span style=&quot;background-color: initial;&quot;&gt;Generate: `R_D`&lt;/span&gt;&lt;br&gt;&lt;span style=&quot;background-color: initial;&quot;&gt;Compute: `Z_1 = B_1\oplusR_D&amp;nbsp; (51)`&lt;/span&gt;&lt;br&gt;&lt;span style=&quot;background-color: initial;&quot;&gt;Compute: `Z_2 = R_D\oplusK_{UG}^1&amp;nbsp; (52)`&lt;/span&gt;&lt;br&gt;&lt;span style=&quot;background-color: initial;&quot;&gt;Compute: `Z_3=h(B_1,K_{UG}^1,R_D)&amp;nbsp; (53)`&lt;/span&gt;&lt;br&gt;&lt;font style=&quot;font-size: 13px;&quot;&gt;&lt;div style=&quot;&quot;&gt;&lt;span style=&quot;background-color: initial;&quot;&gt;Store: `Z_1,Z_2,Z_3,B_2,G,H,\beta,f_u`&lt;/span&gt;&lt;/div&gt;&lt;/font&gt;&lt;/font&gt;" style="rounded=1;whiteSpace=wrap;html=1;fillColor=#dae8fc;strokeColor=#6c8ebf;align=left;strokeWidth=1;shadow=0;glass=0;gradientColor=none;horizontal=1;verticalAlign=middle;spacingLeft=7;" parent="1" vertex="1">
          <mxGeometry x="80" y="470" width="260" height="110" as="geometry" />
        </mxCell>
        <mxCell id="Ddu9wDRHc_xumgMtI3vM-11" value="&lt;font style=&quot;font-size: 13px;&quot;&gt;Store: `G, H, U_{ID}, C_U, \tau_1,\tau_2,U, \beta`&lt;/font&gt;" style="rounded=1;whiteSpace=wrap;html=1;fillColor=#dae8fc;strokeColor=#6c8ebf;" parent="1" vertex="1">
          <mxGeometry x="580" y="470" width="290" height="60" as="geometry" />
        </mxCell>
        <mxCell id="Ddu9wDRHc_xumgMtI3vM-12" value="&lt;font style=&quot;font-size: 13px;&quot;&gt;`U_{ID}, R_q`&lt;/font&gt;" style="rounded=0;whiteSpace=wrap;html=1;fillColor=#FFFF00;strokeColor=#82b366;" parent="1" vertex="1">
          <mxGeometry x="395" y="150" width="80" height="26" as="geometry" />
        </mxCell>
        <mxCell id="Ddu9wDRHc_xumgMtI3vM-13" value="&lt;font style=&quot;font-size: 13px;&quot;&gt;`C_U , G, H`&lt;/font&gt;" style="rounded=0;whiteSpace=wrap;html=1;fillColor=#E5CCFF;" parent="1" vertex="1">
          <mxGeometry x="375" y="200" width="100" height="26" as="geometry" />
        </mxCell>
        <mxCell id="dXKXalocIsilJwDQ7Tsw-7" value="" style="edgeStyle=orthogonalEdgeStyle;rounded=0;orthogonalLoop=1;jettySize=auto;html=1;" parent="1" source="Ddu9wDRHc_xumgMtI3vM-15" target="Ddu9wDRHc_xumgMtI3vM-8" edge="1">
          <mxGeometry relative="1" as="geometry" />
        </mxCell>
        <mxCell id="Ddu9wDRHc_xumgMtI3vM-15" value="&lt;font style=&quot;font-size: 13px;&quot;&gt;`\tau_1,\tau_2`&lt;/font&gt;" style="rounded=0;whiteSpace=wrap;html=1;fillColor=#dae8fc;strokeColor=#6c8ebf;fontSize=16;" parent="1" vertex="1">
          <mxGeometry x="390" y="307" width="77.5" height="26" as="geometry" />
        </mxCell>
        <mxCell id="Ddu9wDRHc_xumgMtI3vM-16" value="&lt;font style=&quot;font-size: 13px;&quot;&gt;`K_{UG}^1,\beta,f_u`&lt;/font&gt;" style="rounded=0;whiteSpace=wrap;html=1;fillColor=#A6F9FF;spacingTop=18;spacingBottom=22;" parent="1" vertex="1">
          <mxGeometry x="345" y="420" width="100" height="29" as="geometry" />
        </mxCell>
        <mxCell id="Ddu9wDRHc_xumgMtI3vM-18" value="" style="endArrow=none;dashed=1;html=1;rounded=0;exitX=0.286;exitY=0.009;exitDx=0;exitDy=0;exitPerimeter=0;" parent="1" edge="1" source="Ddu9wDRHc_xumgMtI3vM-5">
          <mxGeometry width="50" height="50" relative="1" as="geometry">
            <mxPoint x="149" y="240" as="sourcePoint" />
            <mxPoint x="150" y="220" as="targetPoint" />
          </mxGeometry>
        </mxCell>
        <mxCell id="Ddu9wDRHc_xumgMtI3vM-20" value="" style="endArrow=none;dashed=1;html=1;rounded=0;entryX=0.593;entryY=0.993;entryDx=0;entryDy=0;entryPerimeter=0;exitX=0.61;exitY=-0.092;exitDx=0;exitDy=0;exitPerimeter=0;" parent="1" source="Ddu9wDRHc_xumgMtI3vM-3" target="Ddu9wDRHc_xumgMtI3vM-1" edge="1">
          <mxGeometry width="50" height="50" relative="1" as="geometry">
            <mxPoint x="151" y="150" as="sourcePoint" />
            <mxPoint x="160" y="60" as="targetPoint" />
          </mxGeometry>
        </mxCell>
        <mxCell id="Ddu9wDRHc_xumgMtI3vM-22" value="" style="endArrow=none;dashed=1;html=1;rounded=0;entryX=0.5;entryY=1;entryDx=0;entryDy=0;exitX=0.392;exitY=-0.059;exitDx=0;exitDy=0;exitPerimeter=0;" parent="1" source="Ddu9wDRHc_xumgMtI3vM-4" target="Ddu9wDRHc_xumgMtI3vM-2" edge="1">
          <mxGeometry width="50" height="50" relative="1" as="geometry">
            <mxPoint x="400" y="230" as="sourcePoint" />
            <mxPoint x="450" y="180" as="targetPoint" />
          </mxGeometry>
        </mxCell>
        <mxCell id="Ddu9wDRHc_xumgMtI3vM-23" value="" style="endArrow=none;dashed=1;html=1;rounded=0;entryX=0.75;entryY=1;entryDx=0;entryDy=0;exitX=0.666;exitY=-0.05;exitDx=0;exitDy=0;exitPerimeter=0;" parent="1" target="Ddu9wDRHc_xumgMtI3vM-8" edge="1" source="Ddu9wDRHc_xumgMtI3vM-11">
          <mxGeometry width="50" height="50" relative="1" as="geometry">
            <mxPoint x="780" y="470" as="sourcePoint" />
            <mxPoint x="570" y="180" as="targetPoint" />
          </mxGeometry>
        </mxCell>
        <mxCell id="Ddu9wDRHc_xumgMtI3vM-24" value="" style="endArrow=none;html=1;rounded=0;exitX=1;exitY=0.5;exitDx=0;exitDy=0;" parent="1" source="Ddu9wDRHc_xumgMtI3vM-16" edge="1">
          <mxGeometry width="50" height="50" relative="1" as="geometry">
            <mxPoint x="520" y="230" as="sourcePoint" />
            <mxPoint x="770" y="435" as="targetPoint" />
          </mxGeometry>
        </mxCell>
        <mxCell id="Ddu9wDRHc_xumgMtI3vM-25" value="" style="endArrow=classic;html=1;rounded=0;exitX=0;exitY=0.5;exitDx=0;exitDy=0;" parent="1" source="Ddu9wDRHc_xumgMtI3vM-16" edge="1">
          <mxGeometry width="50" height="50" relative="1" as="geometry">
            <mxPoint x="520" y="230" as="sourcePoint" />
            <mxPoint x="150" y="435" as="targetPoint" />
          </mxGeometry>
        </mxCell>
        <mxCell id="Ddu9wDRHc_xumgMtI3vM-31" value="" style="endArrow=classic;html=1;rounded=0;exitX=1;exitY=0.5;exitDx=0;exitDy=0;" parent="1" source="Ddu9wDRHc_xumgMtI3vM-12" edge="1">
          <mxGeometry width="50" height="50" relative="1" as="geometry">
            <mxPoint x="480" y="160" as="sourcePoint" />
            <mxPoint x="721" y="162" as="targetPoint" />
          </mxGeometry>
        </mxCell>
        <mxCell id="Ddu9wDRHc_xumgMtI3vM-33" value="1" style="rounded=0;whiteSpace=wrap;html=1;fillColor=#62AB2B;strokeColor=#82b366;" parent="1" vertex="1">
          <mxGeometry x="50" y="140" width="20" height="19" as="geometry" />
        </mxCell>
        <mxCell id="Ddu9wDRHc_xumgMtI3vM-36" value="2" style="rounded=0;whiteSpace=wrap;html=1;fillColor=#67AB9F;" parent="1" vertex="1">
          <mxGeometry x="880" y="146" width="20" height="20" as="geometry" />
        </mxCell>
        <mxCell id="Ddu9wDRHc_xumgMtI3vM-37" value="3" style="rounded=0;whiteSpace=wrap;html=1;fillColor=#67AB9F;" parent="1" vertex="1">
          <mxGeometry x="50" y="240" width="20" height="20" as="geometry" />
        </mxCell>
        <mxCell id="Ddu9wDRHc_xumgMtI3vM-39" value="4" style="rounded=0;whiteSpace=wrap;html=1;fillColor=#67AB9F;" parent="1" vertex="1">
          <mxGeometry x="880" y="250" width="20" height="20" as="geometry" />
        </mxCell>
        <mxCell id="Ddu9wDRHc_xumgMtI3vM-40" value="5" style="rounded=0;whiteSpace=wrap;html=1;fillColor=#67AB9F;" parent="1" vertex="1">
          <mxGeometry x="50" y="470" width="20" height="20" as="geometry" />
        </mxCell>
        <mxCell id="Ddu9wDRHc_xumgMtI3vM-42" value="6" style="rounded=0;whiteSpace=wrap;html=1;fillColor=#67AB9F;" parent="1" vertex="1">
          <mxGeometry x="880" y="470" width="20" height="20" as="geometry" />
        </mxCell>
        <mxCell id="SoYMRN2-4axB4GX_azqP-4" value="&lt;font style=&quot;font-size: 13px;&quot;&gt;`M_{UG}^1&amp;nbsp; (38)`&lt;/font&gt;" style="text;html=1;align=center;verticalAlign=middle;resizable=0;points=[];autosize=1;strokeColor=none;fillColor=none;" parent="1" vertex="1">
          <mxGeometry x="370" y="120" width="120" height="30" as="geometry" />
        </mxCell>
        <mxCell id="SoYMRN2-4axB4GX_azqP-5" value="&lt;font style=&quot;font-size: 13px;&quot;&gt;`M_{GU}^2&amp;nbsp; (39)`&lt;/font&gt;" style="text;html=1;align=center;verticalAlign=middle;resizable=0;points=[];autosize=1;strokeColor=none;fillColor=none;" parent="1" vertex="1">
          <mxGeometry x="470" y="176" width="120" height="30" as="geometry" />
        </mxCell>
        <mxCell id="SoYMRN2-4axB4GX_azqP-6" value="&lt;font style=&quot;font-size: 13px;&quot;&gt;`M_{UG}^3&amp;nbsp; (45)`&lt;/font&gt;" style="text;html=1;align=center;verticalAlign=middle;resizable=0;points=[];autosize=1;strokeColor=none;fillColor=none;" parent="1" vertex="1">
          <mxGeometry x="368.75" y="277" width="120" height="30" as="geometry" />
        </mxCell>
        <mxCell id="SoYMRN2-4axB4GX_azqP-7" value="&lt;font style=&quot;font-size: 13px;&quot;&gt;`M_{GU}^4&amp;nbsp; (46)`&lt;/font&gt;" style="text;html=1;align=center;verticalAlign=middle;resizable=0;points=[];autosize=1;strokeColor=none;fillColor=none;" parent="1" vertex="1">
          <mxGeometry x="440" y="400" width="120" height="30" as="geometry" />
        </mxCell>
        <mxCell id="SoYMRN2-4axB4GX_azqP-9" value="" style="endArrow=classic;startArrow=classic;html=1;rounded=0;" parent="1" edge="1">
          <mxGeometry width="50" height="50" relative="1" as="geometry">
            <mxPoint x="160" y="650" as="sourcePoint" />
            <mxPoint x="795" y="650" as="targetPoint" />
            <Array as="points">
              <mxPoint x="420" y="650" />
            </Array>
          </mxGeometry>
        </mxCell>
        <mxCell id="SoYMRN2-4axB4GX_azqP-10" value="&lt;font style=&quot;font-size: 15px;&quot;&gt;Secure Channel&lt;/font&gt;" style="text;html=1;align=center;verticalAlign=middle;resizable=0;points=[];autosize=1;strokeColor=none;fillColor=none;" parent="1" vertex="1">
          <mxGeometry x="395" y="610" width="130" height="30" as="geometry" />
        </mxCell>
        <mxCell id="dXKXalocIsilJwDQ7Tsw-9" value="" style="endArrow=none;html=1;rounded=0;" parent="1" edge="1">
          <mxGeometry width="50" height="50" relative="1" as="geometry">
            <mxPoint x="300" y="321" as="sourcePoint" />
            <mxPoint x="391" y="321" as="targetPoint" />
          </mxGeometry>
        </mxCell>
        <mxCell id="Ddu9wDRHc_xumgMtI3vM-29" value="" style="endArrow=classic;html=1;rounded=0;exitX=0;exitY=0.5;exitDx=0;exitDy=0;" parent="1" source="Ddu9wDRHc_xumgMtI3vM-13" edge="1">
          <mxGeometry width="50" height="50" relative="1" as="geometry">
            <mxPoint x="520" y="230" as="sourcePoint" />
            <mxPoint x="190" y="213" as="targetPoint" />
          </mxGeometry>
        </mxCell>
        <mxCell id="yjy02Wda27G8gxhVepKO-2" style="edgeStyle=orthogonalEdgeStyle;rounded=0;orthogonalLoop=1;jettySize=auto;html=1;exitX=1;exitY=0.5;exitDx=0;exitDy=0;" edge="1" parent="1" source="Ddu9wDRHc_xumgMtI3vM-8" target="Ddu9wDRHc_xumgMtI3vM-8">
          <mxGeometry relative="1" as="geometry" />
        </mxCell>
      </root>
    </mxGraphModel>
  </diagram>
</mxfile>
